M48
;DRILL file {KiCad 4.0.1-stable} date 2017/07/07 18:52:29
;FORMAT={-:-/ absolute / metric / decimal}
FMAT,2
METRIC,TZ
T1C0.400
T2C1.016
T3C3.000
%
G90
G05
M71
T1
X123.5Y-131.5
X124.Y-98.5
X128.5Y-97.
X130.5Y-114.
X133.5Y-94.
X139.5Y-114.
X144.Y-122.5
X148.5Y-115.
X148.5Y-128.
X156.5Y-80.5
X169.195Y-97.263
T2
X118.23Y-122.21
X118.23Y-124.75
X118.23Y-127.29
X118.5Y-81.11
X118.5Y-83.65
X118.5Y-86.19
X118.5Y-88.73
X118.5Y-91.27
X118.5Y-93.81
X118.5Y-96.35
X118.5Y-98.89
X118.5Y-103.9
X118.5Y-106.44
X118.5Y-108.98
X118.5Y-111.52
X118.5Y-114.06
X118.5Y-116.6
X120.77Y-122.21
X120.77Y-124.75
X120.77Y-127.29
X129.249Y-124.489
X129.249Y-129.011
X135.751Y-124.489
X135.751Y-129.011
X141.21Y-116.73
X141.21Y-119.27
X143.75Y-116.73
X143.75Y-119.27
X146.29Y-116.73
X146.29Y-119.27
X166.75Y-72.07
X166.75Y-74.61
X166.75Y-77.15
X166.75Y-79.69
X166.75Y-82.23
X166.75Y-84.77
X166.75Y-87.31
X166.75Y-89.85
X166.75Y-92.39
X166.75Y-94.93
X166.75Y-98.86
X166.75Y-101.4
X166.75Y-103.94
X166.75Y-106.48
X166.75Y-109.02
X166.75Y-111.56
X166.75Y-114.1
X166.75Y-116.64
X171.23Y-86.53
X171.23Y-89.07
X171.23Y-91.61
X171.23Y-94.15
X171.23Y-96.69
X171.23Y-99.23
X171.23Y-101.77
X171.23Y-104.31
X171.23Y-106.85
X171.23Y-109.39
X171.23Y-111.93
X171.23Y-114.47
X173.77Y-86.53
X173.77Y-89.07
X173.77Y-91.61
X173.77Y-94.15
X173.77Y-96.69
X173.77Y-99.23
X173.77Y-101.77
X173.77Y-104.31
X173.77Y-106.85
X173.77Y-109.39
X173.77Y-111.93
X173.77Y-114.47
T3
X110.25Y-53.5
X110.25Y-134.5
X173.25Y-53.5
X173.25Y-134.5
T0
M30
