G04 #@! TF.FileFunction,Paste,Bot*
%FSLAX46Y46*%
G04 Gerber Fmt 4.6, Leading zero omitted, Abs format (unit mm)*
G04 Created by KiCad (PCBNEW 4.0.1-stable) date 2017/07/07 18:52:27*
%MOMM*%
G01*
G04 APERTURE LIST*
%ADD10C,0.050000*%
%ADD11R,1.524000X1.524000*%
%ADD12C,1.524000*%
%ADD13O,3.048000X1.524000*%
G04 APERTURE END LIST*
D10*
D11*
X118230000Y-122210000D03*
D12*
X120770000Y-122210000D03*
X118230000Y-124750000D03*
X120770000Y-124750000D03*
X118230000Y-127290000D03*
X120770000Y-127290000D03*
D13*
X118500000Y-103900000D03*
X118500000Y-106440000D03*
X118500000Y-108980000D03*
X118500000Y-111520000D03*
X118500000Y-114060000D03*
X118500000Y-116600000D03*
X129248800Y-124489400D03*
X135751200Y-124489400D03*
X129248800Y-129010600D03*
X135751200Y-129010600D03*
D12*
X171230000Y-86530000D03*
X173770000Y-86530000D03*
X171230000Y-89070000D03*
X173770000Y-89070000D03*
X171230000Y-91610000D03*
X173770000Y-91610000D03*
X171230000Y-94150000D03*
X173770000Y-94150000D03*
X171230000Y-96690000D03*
X173770000Y-96690000D03*
X171230000Y-99230000D03*
X173770000Y-99230000D03*
X171230000Y-101770000D03*
X173770000Y-101770000D03*
X171230000Y-104310000D03*
X173770000Y-104310000D03*
X171230000Y-106850000D03*
X173770000Y-106850000D03*
X171230000Y-109390000D03*
X173770000Y-109390000D03*
X171230000Y-111930000D03*
X173770000Y-111930000D03*
X171230000Y-114470000D03*
X173770000Y-114470000D03*
D13*
X118500000Y-81110000D03*
X118500000Y-83650000D03*
X118500000Y-86190000D03*
X118500000Y-88730000D03*
X118500000Y-91270000D03*
X118500000Y-93810000D03*
X118500000Y-96350000D03*
X118500000Y-98890000D03*
D11*
X146290000Y-116730000D03*
D12*
X146290000Y-119270000D03*
X143750000Y-116730000D03*
X143750000Y-119270000D03*
X141210000Y-116730000D03*
X141210000Y-119270000D03*
D13*
X166750000Y-72070000D03*
X166750000Y-74610000D03*
X166750000Y-77150000D03*
X166750000Y-79690000D03*
X166750000Y-82230000D03*
X166750000Y-84770000D03*
X166750000Y-87310000D03*
X166750000Y-89850000D03*
X166750000Y-92390000D03*
X166750000Y-94930000D03*
X166750000Y-116640000D03*
X166750000Y-114100000D03*
X166750000Y-111560000D03*
X166750000Y-109020000D03*
X166750000Y-106480000D03*
X166750000Y-103940000D03*
X166750000Y-101400000D03*
X166750000Y-98860000D03*
M02*
