G04 #@! TF.FileFunction,Copper,L1,Top,Signal*
%FSLAX46Y46*%
G04 Gerber Fmt 4.6, Leading zero omitted, Abs format (unit mm)*
G04 Created by KiCad (PCBNEW 4.0.1-stable) date 2017/07/07 18:52:27*
%MOMM*%
G01*
G04 APERTURE LIST*
%ADD10C,0.050000*%
%ADD11R,1.049020X1.079500*%
%ADD12R,1.524000X1.524000*%
%ADD13C,1.524000*%
%ADD14O,3.048000X1.524000*%
%ADD15R,1.597660X1.297940*%
%ADD16R,2.999740X1.597660*%
%ADD17R,6.197600X5.798820*%
%ADD18C,0.600000*%
%ADD19C,0.500000*%
%ADD20C,0.300000*%
%ADD21C,0.254000*%
G04 APERTURE END LIST*
D10*
D11*
X138876240Y-127750000D03*
X140623760Y-127750000D03*
D12*
X118230000Y-122210000D03*
D13*
X120770000Y-122210000D03*
X118230000Y-124750000D03*
X120770000Y-124750000D03*
X118230000Y-127290000D03*
X120770000Y-127290000D03*
D14*
X118500000Y-103900000D03*
X118500000Y-106440000D03*
X118500000Y-108980000D03*
X118500000Y-111520000D03*
X118500000Y-114060000D03*
X118500000Y-116600000D03*
X129248800Y-124489400D03*
X135751200Y-124489400D03*
X129248800Y-129010600D03*
X135751200Y-129010600D03*
D13*
X171230000Y-86530000D03*
X173770000Y-86530000D03*
X171230000Y-89070000D03*
X173770000Y-89070000D03*
X171230000Y-91610000D03*
X173770000Y-91610000D03*
X171230000Y-94150000D03*
X173770000Y-94150000D03*
X171230000Y-96690000D03*
X173770000Y-96690000D03*
X171230000Y-99230000D03*
X173770000Y-99230000D03*
X171230000Y-101770000D03*
X173770000Y-101770000D03*
X171230000Y-104310000D03*
X173770000Y-104310000D03*
X171230000Y-106850000D03*
X173770000Y-106850000D03*
X171230000Y-109390000D03*
X173770000Y-109390000D03*
X171230000Y-111930000D03*
X173770000Y-111930000D03*
X171230000Y-114470000D03*
X173770000Y-114470000D03*
D14*
X118500000Y-81110000D03*
X118500000Y-83650000D03*
X118500000Y-86190000D03*
X118500000Y-88730000D03*
X118500000Y-91270000D03*
X118500000Y-93810000D03*
X118500000Y-96350000D03*
X118500000Y-98890000D03*
D12*
X146290000Y-116730000D03*
D13*
X146290000Y-119270000D03*
X143750000Y-116730000D03*
X143750000Y-119270000D03*
X141210000Y-116730000D03*
X141210000Y-119270000D03*
D14*
X166750000Y-72070000D03*
X166750000Y-74610000D03*
X166750000Y-77150000D03*
X166750000Y-79690000D03*
X166750000Y-82230000D03*
X166750000Y-84770000D03*
X166750000Y-87310000D03*
X166750000Y-89850000D03*
X166750000Y-92390000D03*
X166750000Y-94930000D03*
X166750000Y-116640000D03*
X166750000Y-114100000D03*
X166750000Y-111560000D03*
X166750000Y-109020000D03*
X166750000Y-106480000D03*
X166750000Y-103940000D03*
X166750000Y-101400000D03*
X166750000Y-98860000D03*
D15*
X136875000Y-120873220D03*
X136875000Y-118876780D03*
X136875000Y-114876780D03*
X136875000Y-116873220D03*
D16*
X133673060Y-120403380D03*
X133673060Y-115846620D03*
D17*
X126495020Y-118125000D03*
D11*
X140623760Y-125750000D03*
X138876240Y-125750000D03*
D18*
X148500000Y-128000000D03*
X123500000Y-131500000D03*
X148500000Y-115000000D03*
X144000000Y-122500000D03*
X124000000Y-98500000D03*
X133500000Y-94000000D03*
X128500000Y-97000000D03*
X130500000Y-114000000D03*
X139500000Y-114000000D03*
X156500000Y-80500000D03*
X169195300Y-97263300D03*
D19*
X135623300Y-120870600D02*
X135625900Y-120873200D01*
X135623300Y-120403400D02*
X135623300Y-120870600D01*
X136875000Y-120873200D02*
X135625900Y-120873200D01*
X134648200Y-120403400D02*
X135623300Y-120403400D01*
X134648200Y-120403400D02*
X133673100Y-120403400D01*
X133673100Y-120403400D02*
X133673100Y-121652500D01*
X121327500Y-94097500D02*
X121327500Y-121652500D01*
X118500000Y-91270000D02*
X121327500Y-94097500D01*
X121327500Y-121652500D02*
X120770000Y-122210000D01*
X173770000Y-114470000D02*
X173770000Y-111930000D01*
X133673100Y-121652500D02*
X121327500Y-121652500D01*
X146290000Y-125530100D02*
X146290000Y-119270000D01*
X141549400Y-130270700D02*
X146290000Y-125530100D01*
X134534300Y-130270700D02*
X141549400Y-130270700D01*
X133673100Y-129409500D02*
X134534300Y-130270700D01*
X133673100Y-121652500D02*
X133673100Y-129409500D01*
D20*
X148500000Y-115000000D02*
X148500000Y-128000000D01*
X127510600Y-124489400D02*
X129248800Y-124489400D01*
X123500000Y-128500000D02*
X123500000Y-131500000D01*
X127510600Y-124489400D02*
X123500000Y-128500000D01*
X130500000Y-114000000D02*
X126495020Y-118004980D01*
X126495020Y-118125000D02*
X126495020Y-118004980D01*
X166750000Y-79690000D02*
X157310000Y-79690000D01*
X157310000Y-79690000D02*
X156500000Y-80500000D01*
X171230000Y-114470000D02*
X171230000Y-111930000D01*
X118500000Y-96350000D02*
X119437200Y-96350000D01*
X118500000Y-95412800D02*
X118500000Y-93810000D01*
X119437200Y-96350000D02*
X118500000Y-95412800D01*
X120381300Y-97294100D02*
X119437200Y-96350000D01*
X120381300Y-119181700D02*
X120381300Y-97294100D01*
X119620500Y-119942500D02*
X120381300Y-119181700D01*
X119620500Y-126140500D02*
X119620500Y-119942500D01*
X120770000Y-127290000D02*
X119620500Y-126140500D01*
X126495000Y-118125000D02*
X129944100Y-118125000D01*
X136875000Y-118125000D02*
X129944100Y-118125000D01*
X136875000Y-116873200D02*
X136875000Y-118125000D01*
X138001400Y-124865300D02*
X137625500Y-124489400D01*
X138001400Y-125750000D02*
X138001400Y-124865300D01*
X135751200Y-124489400D02*
X137625500Y-124489400D01*
X138876200Y-125750000D02*
X138001400Y-125750000D01*
X136875000Y-118125000D02*
X136875000Y-118876800D01*
X138024200Y-124090700D02*
X137625500Y-124489400D01*
X138024200Y-120026000D02*
X138024200Y-124090700D01*
X136875000Y-118876800D02*
X138024200Y-120026000D01*
D19*
X136875000Y-114876800D02*
X138124100Y-114876800D01*
X136875000Y-114876800D02*
X135625900Y-114876800D01*
X133673100Y-114876800D02*
X135625900Y-114876800D01*
X133673100Y-103903100D02*
X133673100Y-114876800D01*
X118500000Y-88730000D02*
X133673100Y-103903100D01*
X133673100Y-114876800D02*
X133673100Y-115846600D01*
X138124100Y-118494100D02*
X138124100Y-114876800D01*
X141640600Y-122010600D02*
X138124100Y-118494100D01*
X141640600Y-128445100D02*
X141640600Y-122010600D01*
X141345600Y-128740100D02*
X141640600Y-128445100D01*
X139866300Y-128740100D02*
X141345600Y-128740100D01*
X138876200Y-127750000D02*
X139866300Y-128740100D01*
D20*
X169802400Y-87957600D02*
X171230000Y-86530000D01*
X169802400Y-95179800D02*
X169802400Y-87957600D01*
X168542800Y-96439400D02*
X169802400Y-95179800D01*
X168542800Y-97579600D02*
X168542800Y-96439400D01*
X168624300Y-97661100D02*
X168542800Y-97579600D01*
X168624300Y-98860000D02*
X168624300Y-97661100D01*
X166750000Y-98860000D02*
X168624300Y-98860000D01*
X175988300Y-88748300D02*
X173770000Y-86530000D01*
X175988300Y-113861000D02*
X175988300Y-88748300D01*
X173209300Y-116640000D02*
X175988300Y-113861000D01*
X166750000Y-116640000D02*
X173209300Y-116640000D01*
X175487900Y-90787900D02*
X173770000Y-89070000D01*
X175487900Y-109326800D02*
X175487900Y-90787900D01*
X174154700Y-110660000D02*
X175487900Y-109326800D01*
X173426800Y-110660000D02*
X174154700Y-110660000D01*
X172657600Y-111429200D02*
X173426800Y-110660000D01*
X172657600Y-114630000D02*
X172657600Y-111429200D01*
X171655300Y-115632300D02*
X172657600Y-114630000D01*
X170156600Y-115632300D02*
X171655300Y-115632300D01*
X168624300Y-114100000D02*
X170156600Y-115632300D01*
X166750000Y-114100000D02*
X168624300Y-114100000D01*
X166750000Y-111560000D02*
X168624300Y-111560000D01*
X168624300Y-109215900D02*
X168624300Y-111560000D01*
X170020000Y-107820200D02*
X168624300Y-109215900D01*
X170020000Y-103946800D02*
X170020000Y-107820200D01*
X170926800Y-103040000D02*
X170020000Y-103946800D01*
X171546200Y-103040000D02*
X170926800Y-103040000D01*
X172342400Y-102243800D02*
X171546200Y-103040000D01*
X172342400Y-101562100D02*
X172342400Y-102243800D01*
X173404500Y-100500000D02*
X172342400Y-101562100D01*
X174143500Y-100500000D02*
X173404500Y-100500000D01*
X174934700Y-99708800D02*
X174143500Y-100500000D01*
X174934700Y-92774700D02*
X174934700Y-99708800D01*
X173770000Y-91610000D02*
X174934700Y-92774700D01*
X166750000Y-109020000D02*
X164875700Y-109020000D01*
X166750000Y-72070000D02*
X168624300Y-72070000D01*
X172908000Y-94150000D02*
X172860400Y-94102300D01*
X173770000Y-94150000D02*
X172908000Y-94150000D01*
X172573200Y-76018900D02*
X168624300Y-72070000D01*
X172573200Y-93815200D02*
X172573200Y-76018900D01*
X172860400Y-94102300D02*
X172573200Y-93815200D01*
X164875700Y-106015700D02*
X164875700Y-109020000D01*
X165681400Y-105210000D02*
X164875700Y-106015700D01*
X167818600Y-105210000D02*
X165681400Y-105210000D01*
X168624300Y-104404300D02*
X167818600Y-105210000D01*
X168624300Y-103782500D02*
X168624300Y-104404300D01*
X169124600Y-103282200D02*
X168624300Y-103782500D01*
X169124600Y-100190400D02*
X169124600Y-103282200D01*
X169845600Y-99469400D02*
X169124600Y-100190400D01*
X169845600Y-96495500D02*
X169845600Y-99469400D01*
X170921100Y-95420000D02*
X169845600Y-96495500D01*
X171542700Y-95420000D02*
X170921100Y-95420000D01*
X172860400Y-94102300D02*
X171542700Y-95420000D01*
X166750000Y-106480000D02*
X168624300Y-106480000D01*
X169124700Y-105979600D02*
X168624300Y-106480000D01*
X169124700Y-103989600D02*
X169124700Y-105979600D01*
X169624900Y-103489400D02*
X169124700Y-103989600D01*
X169624900Y-101798500D02*
X169624900Y-103489400D01*
X171081000Y-100342400D02*
X169624900Y-101798500D01*
X171730900Y-100342400D02*
X171081000Y-100342400D01*
X172500000Y-99573300D02*
X171730900Y-100342400D01*
X172500000Y-97960000D02*
X172500000Y-99573300D01*
X173770000Y-96690000D02*
X172500000Y-97960000D01*
X169195300Y-99058500D02*
X169195300Y-97263300D01*
X168624300Y-99629500D02*
X169195300Y-99058500D01*
X168624300Y-102065700D02*
X168624300Y-99629500D01*
X166750000Y-103940000D02*
X168624300Y-102065700D01*
X172342400Y-103197600D02*
X173770000Y-101770000D01*
X172342400Y-107350900D02*
X172342400Y-103197600D01*
X171730900Y-107962400D02*
X172342400Y-107350900D01*
X171037400Y-107962400D02*
X171730900Y-107962400D01*
X170020000Y-108979800D02*
X171037400Y-107962400D01*
X170020000Y-110908600D02*
X170020000Y-108979800D01*
X168207900Y-112720700D02*
X170020000Y-110908600D01*
X165532100Y-112720700D02*
X168207900Y-112720700D01*
X164361700Y-111550300D02*
X165532100Y-112720700D01*
X164361700Y-101914000D02*
X164361700Y-111550300D01*
X164875700Y-101400000D02*
X164361700Y-101914000D01*
X166750000Y-101400000D02*
X164875700Y-101400000D01*
X137977900Y-129363000D02*
X137625500Y-129010600D01*
X141600800Y-129363000D02*
X137977900Y-129363000D01*
X142368400Y-128595400D02*
X141600800Y-129363000D01*
X142368400Y-117888400D02*
X142368400Y-128595400D01*
X141210000Y-116730000D02*
X142368400Y-117888400D01*
X135751200Y-129010600D02*
X137625500Y-129010600D01*
X141210000Y-107025700D02*
X141210000Y-116730000D01*
X120374300Y-86190000D02*
X141210000Y-107025700D01*
X118500000Y-86190000D02*
X120374300Y-86190000D01*
X140623800Y-125750000D02*
X140623800Y-127750000D01*
D21*
G36*
X153040000Y-67500000D02*
X153094046Y-67771705D01*
X153247954Y-68002046D01*
X153478295Y-68155954D01*
X153750000Y-68210000D01*
X170750000Y-68210000D01*
X171021705Y-68155954D01*
X171252046Y-68002046D01*
X171405954Y-67771705D01*
X171460000Y-67500000D01*
X171460000Y-54728857D01*
X172039041Y-55308909D01*
X172823459Y-55634628D01*
X173672815Y-55635370D01*
X174457800Y-55311020D01*
X175058909Y-54710959D01*
X175384628Y-53926541D01*
X175385370Y-53077185D01*
X175061020Y-52292200D01*
X174460959Y-51691091D01*
X173676541Y-51365372D01*
X172827185Y-51364630D01*
X172042200Y-51688980D01*
X171460000Y-52270165D01*
X171460000Y-50710000D01*
X175180073Y-50710000D01*
X175546996Y-50782986D01*
X175798780Y-50951223D01*
X175967014Y-51203003D01*
X176040000Y-51569927D01*
X176040000Y-87689842D01*
X175164557Y-86814399D01*
X175166757Y-86809100D01*
X175167242Y-86253339D01*
X174955010Y-85739697D01*
X174562370Y-85346371D01*
X174049100Y-85133243D01*
X173493339Y-85132758D01*
X173358200Y-85188596D01*
X173358200Y-76018900D01*
X173298445Y-75718494D01*
X173128279Y-75463821D01*
X169179379Y-71514921D01*
X168924707Y-71344755D01*
X168685828Y-71297239D01*
X168542125Y-71082172D01*
X168088906Y-70779340D01*
X167554297Y-70673000D01*
X165945703Y-70673000D01*
X165411094Y-70779340D01*
X164957875Y-71082172D01*
X164655043Y-71535391D01*
X164548703Y-72070000D01*
X164655043Y-72604609D01*
X164957875Y-73057828D01*
X165380174Y-73340000D01*
X164957875Y-73622172D01*
X164655043Y-74075391D01*
X164548703Y-74610000D01*
X164655043Y-75144609D01*
X164957875Y-75597828D01*
X165380174Y-75880000D01*
X164957875Y-76162172D01*
X164655043Y-76615391D01*
X164548703Y-77150000D01*
X164655043Y-77684609D01*
X164957875Y-78137828D01*
X165395662Y-78430349D01*
X165336059Y-78447941D01*
X164910370Y-78791974D01*
X164648740Y-79272723D01*
X164633780Y-79346930D01*
X164756280Y-79563000D01*
X166623000Y-79563000D01*
X166623000Y-79543000D01*
X166877000Y-79543000D01*
X166877000Y-79563000D01*
X168743720Y-79563000D01*
X168866220Y-79346930D01*
X168851260Y-79272723D01*
X168589630Y-78791974D01*
X168163941Y-78447941D01*
X168104338Y-78430349D01*
X168542125Y-78137828D01*
X168844957Y-77684609D01*
X168951297Y-77150000D01*
X168844957Y-76615391D01*
X168542125Y-76162172D01*
X168119826Y-75880000D01*
X168542125Y-75597828D01*
X168844957Y-75144609D01*
X168951297Y-74610000D01*
X168844957Y-74075391D01*
X168542125Y-73622172D01*
X168119826Y-73340000D01*
X168518054Y-73073912D01*
X171788200Y-76344058D01*
X171788200Y-85249135D01*
X171509100Y-85133243D01*
X170953339Y-85132758D01*
X170439697Y-85344990D01*
X170046371Y-85737630D01*
X169833243Y-86250900D01*
X169832758Y-86806661D01*
X169835805Y-86814037D01*
X169247321Y-87402521D01*
X169077155Y-87657193D01*
X169039798Y-87844999D01*
X169017400Y-87957600D01*
X169017400Y-94854642D01*
X168949762Y-94922280D01*
X168844957Y-94395391D01*
X168542125Y-93942172D01*
X168119826Y-93660000D01*
X168542125Y-93377828D01*
X168844957Y-92924609D01*
X168951297Y-92390000D01*
X168844957Y-91855391D01*
X168542125Y-91402172D01*
X168119826Y-91120000D01*
X168542125Y-90837828D01*
X168844957Y-90384609D01*
X168951297Y-89850000D01*
X168844957Y-89315391D01*
X168542125Y-88862172D01*
X168119826Y-88580000D01*
X168542125Y-88297828D01*
X168844957Y-87844609D01*
X168951297Y-87310000D01*
X168844957Y-86775391D01*
X168542125Y-86322172D01*
X168119826Y-86040000D01*
X168542125Y-85757828D01*
X168844957Y-85304609D01*
X168951297Y-84770000D01*
X168844957Y-84235391D01*
X168542125Y-83782172D01*
X168119826Y-83500000D01*
X168542125Y-83217828D01*
X168844957Y-82764609D01*
X168951297Y-82230000D01*
X168844957Y-81695391D01*
X168542125Y-81242172D01*
X168104338Y-80949651D01*
X168163941Y-80932059D01*
X168589630Y-80588026D01*
X168851260Y-80107277D01*
X168866220Y-80033070D01*
X168743720Y-79817000D01*
X166877000Y-79817000D01*
X166877000Y-79837000D01*
X166623000Y-79837000D01*
X166623000Y-79817000D01*
X164756280Y-79817000D01*
X164633780Y-80033070D01*
X164648740Y-80107277D01*
X164910370Y-80588026D01*
X165336059Y-80932059D01*
X165395662Y-80949651D01*
X164957875Y-81242172D01*
X164655043Y-81695391D01*
X164548703Y-82230000D01*
X164655043Y-82764609D01*
X164957875Y-83217828D01*
X165380174Y-83500000D01*
X164957875Y-83782172D01*
X164655043Y-84235391D01*
X164548703Y-84770000D01*
X164655043Y-85304609D01*
X164957875Y-85757828D01*
X165380174Y-86040000D01*
X164957875Y-86322172D01*
X164655043Y-86775391D01*
X164548703Y-87310000D01*
X164655043Y-87844609D01*
X164957875Y-88297828D01*
X165380174Y-88580000D01*
X164957875Y-88862172D01*
X164655043Y-89315391D01*
X164548703Y-89850000D01*
X164655043Y-90384609D01*
X164957875Y-90837828D01*
X165380174Y-91120000D01*
X164957875Y-91402172D01*
X164655043Y-91855391D01*
X164548703Y-92390000D01*
X164655043Y-92924609D01*
X164957875Y-93377828D01*
X165380174Y-93660000D01*
X164957875Y-93942172D01*
X164655043Y-94395391D01*
X164548703Y-94930000D01*
X164655043Y-95464609D01*
X164957875Y-95917828D01*
X165411094Y-96220660D01*
X165945703Y-96327000D01*
X167554297Y-96327000D01*
X167789463Y-96280223D01*
X167757800Y-96439400D01*
X167757800Y-97503479D01*
X167554297Y-97463000D01*
X165945703Y-97463000D01*
X165411094Y-97569340D01*
X164957875Y-97872172D01*
X164655043Y-98325391D01*
X164548703Y-98860000D01*
X164655043Y-99394609D01*
X164957875Y-99847828D01*
X165380174Y-100130000D01*
X164957875Y-100412172D01*
X164814172Y-100627239D01*
X164575294Y-100674755D01*
X164320621Y-100844921D01*
X163806621Y-101358921D01*
X163636455Y-101613593D01*
X163636455Y-101613594D01*
X163576700Y-101914000D01*
X163576700Y-111550300D01*
X163636455Y-111850707D01*
X163806621Y-112105379D01*
X164900012Y-113198770D01*
X164655043Y-113565391D01*
X164548703Y-114100000D01*
X164655043Y-114634609D01*
X164957875Y-115087828D01*
X165380174Y-115370000D01*
X164957875Y-115652172D01*
X164655043Y-116105391D01*
X164548703Y-116640000D01*
X164655043Y-117174609D01*
X164957875Y-117627828D01*
X165411094Y-117930660D01*
X165945703Y-118037000D01*
X167554297Y-118037000D01*
X168088906Y-117930660D01*
X168542125Y-117627828D01*
X168677651Y-117425000D01*
X173209300Y-117425000D01*
X173509707Y-117365245D01*
X173764379Y-117195079D01*
X176040000Y-114919457D01*
X176040000Y-136430073D01*
X175967014Y-136796997D01*
X175798780Y-137048777D01*
X175546996Y-137217014D01*
X175180073Y-137290000D01*
X170210000Y-137290000D01*
X170210000Y-134922815D01*
X171114630Y-134922815D01*
X171438980Y-135707800D01*
X172039041Y-136308909D01*
X172823459Y-136634628D01*
X173672815Y-136635370D01*
X174457800Y-136311020D01*
X175058909Y-135710959D01*
X175384628Y-134926541D01*
X175385370Y-134077185D01*
X175061020Y-133292200D01*
X174460959Y-132691091D01*
X173676541Y-132365372D01*
X172827185Y-132364630D01*
X172042200Y-132688980D01*
X171441091Y-133289041D01*
X171115372Y-134073459D01*
X171114630Y-134922815D01*
X170210000Y-134922815D01*
X170210000Y-119500000D01*
X170155954Y-119228295D01*
X170002046Y-118997954D01*
X169771705Y-118844046D01*
X169500000Y-118790000D01*
X151000000Y-118790000D01*
X150728295Y-118844046D01*
X150497954Y-118997954D01*
X150344046Y-119228295D01*
X150290000Y-119500000D01*
X150290000Y-137290000D01*
X108319927Y-137290000D01*
X107953003Y-137217014D01*
X107701223Y-137048780D01*
X107532986Y-136796996D01*
X107460000Y-136430073D01*
X107460000Y-134922815D01*
X108114630Y-134922815D01*
X108438980Y-135707800D01*
X109039041Y-136308909D01*
X109823459Y-136634628D01*
X110672815Y-136635370D01*
X111457800Y-136311020D01*
X112058909Y-135710959D01*
X112384628Y-134926541D01*
X112385370Y-134077185D01*
X112061020Y-133292200D01*
X111460959Y-132691091D01*
X110676541Y-132365372D01*
X109827185Y-132364630D01*
X109042200Y-132688980D01*
X108441091Y-133289041D01*
X108115372Y-134073459D01*
X108114630Y-134922815D01*
X107460000Y-134922815D01*
X107460000Y-129010600D01*
X127047503Y-129010600D01*
X127153843Y-129545209D01*
X127456675Y-129998428D01*
X127909894Y-130301260D01*
X128444503Y-130407600D01*
X130053097Y-130407600D01*
X130587706Y-130301260D01*
X131040925Y-129998428D01*
X131343757Y-129545209D01*
X131450097Y-129010600D01*
X131343757Y-128475991D01*
X131040925Y-128022772D01*
X130587706Y-127719940D01*
X130053097Y-127613600D01*
X128444503Y-127613600D01*
X127909894Y-127719940D01*
X127456675Y-128022772D01*
X127153843Y-128475991D01*
X127047503Y-129010600D01*
X107460000Y-129010600D01*
X107460000Y-126710000D01*
X115750000Y-126710000D01*
X116021705Y-126655954D01*
X116252046Y-126502046D01*
X116405954Y-126271705D01*
X116460000Y-126000000D01*
X116460000Y-117216858D01*
X116707875Y-117587828D01*
X117161094Y-117890660D01*
X117695703Y-117997000D01*
X119304297Y-117997000D01*
X119838906Y-117890660D01*
X120292125Y-117587828D01*
X120442500Y-117362776D01*
X120442500Y-120833764D01*
X119979697Y-121024990D01*
X119626237Y-121377833D01*
X119595162Y-121212683D01*
X119456090Y-120996559D01*
X119243890Y-120851569D01*
X118992000Y-120800560D01*
X117468000Y-120800560D01*
X117232683Y-120844838D01*
X117016559Y-120983910D01*
X116871569Y-121196110D01*
X116820560Y-121448000D01*
X116820560Y-122972000D01*
X116864838Y-123207317D01*
X117003910Y-123423441D01*
X117216110Y-123568431D01*
X117399124Y-123605492D01*
X117046371Y-123957630D01*
X116833243Y-124470900D01*
X116832758Y-125026661D01*
X117044990Y-125540303D01*
X117437630Y-125933629D01*
X117645512Y-126019949D01*
X117439697Y-126104990D01*
X117046371Y-126497630D01*
X116833243Y-127010900D01*
X116832758Y-127566661D01*
X117044990Y-128080303D01*
X117437630Y-128473629D01*
X117950900Y-128686757D01*
X118506661Y-128687242D01*
X119020303Y-128475010D01*
X119225457Y-128270213D01*
X119969392Y-128270213D01*
X120038857Y-128512397D01*
X120562302Y-128699144D01*
X121117368Y-128671362D01*
X121501143Y-128512397D01*
X121570608Y-128270213D01*
X120770000Y-127469605D01*
X119969392Y-128270213D01*
X119225457Y-128270213D01*
X119413629Y-128082370D01*
X119493395Y-127890273D01*
X119547603Y-128021143D01*
X119789787Y-128090608D01*
X120590395Y-127290000D01*
X120949605Y-127290000D01*
X121750213Y-128090608D01*
X121992397Y-128021143D01*
X122179144Y-127497698D01*
X122151362Y-126942632D01*
X121992397Y-126558857D01*
X121750213Y-126489392D01*
X120949605Y-127290000D01*
X120590395Y-127290000D01*
X119789787Y-126489392D01*
X119547603Y-126558857D01*
X119497491Y-126699318D01*
X119415010Y-126499697D01*
X119022370Y-126106371D01*
X118814488Y-126020051D01*
X119020303Y-125935010D01*
X119413629Y-125542370D01*
X119499949Y-125334488D01*
X119584990Y-125540303D01*
X119977630Y-125933629D01*
X120169727Y-126013395D01*
X120038857Y-126067603D01*
X119969392Y-126309787D01*
X120770000Y-127110395D01*
X121570608Y-126309787D01*
X121501143Y-126067603D01*
X121360682Y-126017491D01*
X121560303Y-125935010D01*
X121953629Y-125542370D01*
X122166757Y-125029100D01*
X122166928Y-124832470D01*
X127132580Y-124832470D01*
X127147540Y-124906677D01*
X127409170Y-125387426D01*
X127834859Y-125731459D01*
X128359800Y-125886400D01*
X129121800Y-125886400D01*
X129121800Y-124616400D01*
X129375800Y-124616400D01*
X129375800Y-125886400D01*
X130137800Y-125886400D01*
X130662741Y-125731459D01*
X131088430Y-125387426D01*
X131350060Y-124906677D01*
X131365020Y-124832470D01*
X131242520Y-124616400D01*
X129375800Y-124616400D01*
X129121800Y-124616400D01*
X127255080Y-124616400D01*
X127132580Y-124832470D01*
X122166928Y-124832470D01*
X122167242Y-124473339D01*
X122032125Y-124146330D01*
X127132580Y-124146330D01*
X127255080Y-124362400D01*
X129121800Y-124362400D01*
X129121800Y-123092400D01*
X129375800Y-123092400D01*
X129375800Y-124362400D01*
X131242520Y-124362400D01*
X131365020Y-124146330D01*
X131350060Y-124072123D01*
X131088430Y-123591374D01*
X130662741Y-123247341D01*
X130137800Y-123092400D01*
X129375800Y-123092400D01*
X129121800Y-123092400D01*
X128359800Y-123092400D01*
X127834859Y-123247341D01*
X127409170Y-123591374D01*
X127147540Y-124072123D01*
X127132580Y-124146330D01*
X122032125Y-124146330D01*
X121955010Y-123959697D01*
X121562370Y-123566371D01*
X121354488Y-123480051D01*
X121560303Y-123395010D01*
X121953629Y-123002370D01*
X122146660Y-122537500D01*
X132788100Y-122537500D01*
X132788100Y-129409495D01*
X132788099Y-129409500D01*
X132844290Y-129691984D01*
X132855467Y-129748175D01*
X132968993Y-129918079D01*
X133047310Y-130035290D01*
X133908508Y-130896487D01*
X133908510Y-130896490D01*
X134195625Y-131088333D01*
X134251816Y-131099510D01*
X134534300Y-131155701D01*
X134534305Y-131155700D01*
X141549395Y-131155700D01*
X141549400Y-131155701D01*
X141831884Y-131099510D01*
X141888075Y-131088333D01*
X142175190Y-130896490D01*
X146915787Y-126155892D01*
X146915790Y-126155890D01*
X147107633Y-125868775D01*
X147134947Y-125731459D01*
X147175001Y-125530100D01*
X147175000Y-125530095D01*
X147175000Y-120360478D01*
X147473629Y-120062370D01*
X147686757Y-119549100D01*
X147687242Y-118993339D01*
X147475010Y-118479697D01*
X147122167Y-118126237D01*
X147287317Y-118095162D01*
X147503441Y-117956090D01*
X147648431Y-117743890D01*
X147699440Y-117492000D01*
X147699440Y-115968000D01*
X147655162Y-115732683D01*
X147516090Y-115516559D01*
X147303890Y-115371569D01*
X147052000Y-115320560D01*
X145528000Y-115320560D01*
X145292683Y-115364838D01*
X145076559Y-115503910D01*
X144931569Y-115716110D01*
X144894508Y-115899124D01*
X144542370Y-115546371D01*
X144029100Y-115333243D01*
X143473339Y-115332758D01*
X142959697Y-115544990D01*
X142566371Y-115937630D01*
X142480051Y-116145512D01*
X142395010Y-115939697D01*
X142002370Y-115546371D01*
X141995000Y-115543311D01*
X141995000Y-107025705D01*
X141995001Y-107025700D01*
X141935245Y-106725294D01*
X141765079Y-106470621D01*
X141765076Y-106470619D01*
X120929379Y-85634921D01*
X120674707Y-85464755D01*
X120435828Y-85417239D01*
X120292125Y-85202172D01*
X119869826Y-84920000D01*
X120292125Y-84637828D01*
X120594957Y-84184609D01*
X120701297Y-83650000D01*
X120594957Y-83115391D01*
X120292125Y-82662172D01*
X119869826Y-82380000D01*
X120292125Y-82097828D01*
X120594957Y-81644609D01*
X120701297Y-81110000D01*
X120594957Y-80575391D01*
X120292125Y-80122172D01*
X119838906Y-79819340D01*
X119304297Y-79713000D01*
X117695703Y-79713000D01*
X117161094Y-79819340D01*
X116707875Y-80122172D01*
X116405043Y-80575391D01*
X116298703Y-81110000D01*
X116405043Y-81644609D01*
X116707875Y-82097828D01*
X117130174Y-82380000D01*
X116707875Y-82662172D01*
X116405043Y-83115391D01*
X116349626Y-83393993D01*
X116252046Y-83247954D01*
X116021705Y-83094046D01*
X115750000Y-83040000D01*
X107460000Y-83040000D01*
X107460000Y-53922815D01*
X108114630Y-53922815D01*
X108438980Y-54707800D01*
X109039041Y-55308909D01*
X109823459Y-55634628D01*
X110672815Y-55635370D01*
X111457800Y-55311020D01*
X112058909Y-54710959D01*
X112384628Y-53926541D01*
X112385370Y-53077185D01*
X112061020Y-52292200D01*
X111460959Y-51691091D01*
X110676541Y-51365372D01*
X109827185Y-51364630D01*
X109042200Y-51688980D01*
X108441091Y-52289041D01*
X108115372Y-53073459D01*
X108114630Y-53922815D01*
X107460000Y-53922815D01*
X107460000Y-51569927D01*
X107532986Y-51203004D01*
X107701223Y-50951220D01*
X107953003Y-50782986D01*
X108319927Y-50710000D01*
X153040000Y-50710000D01*
X153040000Y-67500000D01*
X153040000Y-67500000D01*
G37*
X153040000Y-67500000D02*
X153094046Y-67771705D01*
X153247954Y-68002046D01*
X153478295Y-68155954D01*
X153750000Y-68210000D01*
X170750000Y-68210000D01*
X171021705Y-68155954D01*
X171252046Y-68002046D01*
X171405954Y-67771705D01*
X171460000Y-67500000D01*
X171460000Y-54728857D01*
X172039041Y-55308909D01*
X172823459Y-55634628D01*
X173672815Y-55635370D01*
X174457800Y-55311020D01*
X175058909Y-54710959D01*
X175384628Y-53926541D01*
X175385370Y-53077185D01*
X175061020Y-52292200D01*
X174460959Y-51691091D01*
X173676541Y-51365372D01*
X172827185Y-51364630D01*
X172042200Y-51688980D01*
X171460000Y-52270165D01*
X171460000Y-50710000D01*
X175180073Y-50710000D01*
X175546996Y-50782986D01*
X175798780Y-50951223D01*
X175967014Y-51203003D01*
X176040000Y-51569927D01*
X176040000Y-87689842D01*
X175164557Y-86814399D01*
X175166757Y-86809100D01*
X175167242Y-86253339D01*
X174955010Y-85739697D01*
X174562370Y-85346371D01*
X174049100Y-85133243D01*
X173493339Y-85132758D01*
X173358200Y-85188596D01*
X173358200Y-76018900D01*
X173298445Y-75718494D01*
X173128279Y-75463821D01*
X169179379Y-71514921D01*
X168924707Y-71344755D01*
X168685828Y-71297239D01*
X168542125Y-71082172D01*
X168088906Y-70779340D01*
X167554297Y-70673000D01*
X165945703Y-70673000D01*
X165411094Y-70779340D01*
X164957875Y-71082172D01*
X164655043Y-71535391D01*
X164548703Y-72070000D01*
X164655043Y-72604609D01*
X164957875Y-73057828D01*
X165380174Y-73340000D01*
X164957875Y-73622172D01*
X164655043Y-74075391D01*
X164548703Y-74610000D01*
X164655043Y-75144609D01*
X164957875Y-75597828D01*
X165380174Y-75880000D01*
X164957875Y-76162172D01*
X164655043Y-76615391D01*
X164548703Y-77150000D01*
X164655043Y-77684609D01*
X164957875Y-78137828D01*
X165395662Y-78430349D01*
X165336059Y-78447941D01*
X164910370Y-78791974D01*
X164648740Y-79272723D01*
X164633780Y-79346930D01*
X164756280Y-79563000D01*
X166623000Y-79563000D01*
X166623000Y-79543000D01*
X166877000Y-79543000D01*
X166877000Y-79563000D01*
X168743720Y-79563000D01*
X168866220Y-79346930D01*
X168851260Y-79272723D01*
X168589630Y-78791974D01*
X168163941Y-78447941D01*
X168104338Y-78430349D01*
X168542125Y-78137828D01*
X168844957Y-77684609D01*
X168951297Y-77150000D01*
X168844957Y-76615391D01*
X168542125Y-76162172D01*
X168119826Y-75880000D01*
X168542125Y-75597828D01*
X168844957Y-75144609D01*
X168951297Y-74610000D01*
X168844957Y-74075391D01*
X168542125Y-73622172D01*
X168119826Y-73340000D01*
X168518054Y-73073912D01*
X171788200Y-76344058D01*
X171788200Y-85249135D01*
X171509100Y-85133243D01*
X170953339Y-85132758D01*
X170439697Y-85344990D01*
X170046371Y-85737630D01*
X169833243Y-86250900D01*
X169832758Y-86806661D01*
X169835805Y-86814037D01*
X169247321Y-87402521D01*
X169077155Y-87657193D01*
X169039798Y-87844999D01*
X169017400Y-87957600D01*
X169017400Y-94854642D01*
X168949762Y-94922280D01*
X168844957Y-94395391D01*
X168542125Y-93942172D01*
X168119826Y-93660000D01*
X168542125Y-93377828D01*
X168844957Y-92924609D01*
X168951297Y-92390000D01*
X168844957Y-91855391D01*
X168542125Y-91402172D01*
X168119826Y-91120000D01*
X168542125Y-90837828D01*
X168844957Y-90384609D01*
X168951297Y-89850000D01*
X168844957Y-89315391D01*
X168542125Y-88862172D01*
X168119826Y-88580000D01*
X168542125Y-88297828D01*
X168844957Y-87844609D01*
X168951297Y-87310000D01*
X168844957Y-86775391D01*
X168542125Y-86322172D01*
X168119826Y-86040000D01*
X168542125Y-85757828D01*
X168844957Y-85304609D01*
X168951297Y-84770000D01*
X168844957Y-84235391D01*
X168542125Y-83782172D01*
X168119826Y-83500000D01*
X168542125Y-83217828D01*
X168844957Y-82764609D01*
X168951297Y-82230000D01*
X168844957Y-81695391D01*
X168542125Y-81242172D01*
X168104338Y-80949651D01*
X168163941Y-80932059D01*
X168589630Y-80588026D01*
X168851260Y-80107277D01*
X168866220Y-80033070D01*
X168743720Y-79817000D01*
X166877000Y-79817000D01*
X166877000Y-79837000D01*
X166623000Y-79837000D01*
X166623000Y-79817000D01*
X164756280Y-79817000D01*
X164633780Y-80033070D01*
X164648740Y-80107277D01*
X164910370Y-80588026D01*
X165336059Y-80932059D01*
X165395662Y-80949651D01*
X164957875Y-81242172D01*
X164655043Y-81695391D01*
X164548703Y-82230000D01*
X164655043Y-82764609D01*
X164957875Y-83217828D01*
X165380174Y-83500000D01*
X164957875Y-83782172D01*
X164655043Y-84235391D01*
X164548703Y-84770000D01*
X164655043Y-85304609D01*
X164957875Y-85757828D01*
X165380174Y-86040000D01*
X164957875Y-86322172D01*
X164655043Y-86775391D01*
X164548703Y-87310000D01*
X164655043Y-87844609D01*
X164957875Y-88297828D01*
X165380174Y-88580000D01*
X164957875Y-88862172D01*
X164655043Y-89315391D01*
X164548703Y-89850000D01*
X164655043Y-90384609D01*
X164957875Y-90837828D01*
X165380174Y-91120000D01*
X164957875Y-91402172D01*
X164655043Y-91855391D01*
X164548703Y-92390000D01*
X164655043Y-92924609D01*
X164957875Y-93377828D01*
X165380174Y-93660000D01*
X164957875Y-93942172D01*
X164655043Y-94395391D01*
X164548703Y-94930000D01*
X164655043Y-95464609D01*
X164957875Y-95917828D01*
X165411094Y-96220660D01*
X165945703Y-96327000D01*
X167554297Y-96327000D01*
X167789463Y-96280223D01*
X167757800Y-96439400D01*
X167757800Y-97503479D01*
X167554297Y-97463000D01*
X165945703Y-97463000D01*
X165411094Y-97569340D01*
X164957875Y-97872172D01*
X164655043Y-98325391D01*
X164548703Y-98860000D01*
X164655043Y-99394609D01*
X164957875Y-99847828D01*
X165380174Y-100130000D01*
X164957875Y-100412172D01*
X164814172Y-100627239D01*
X164575294Y-100674755D01*
X164320621Y-100844921D01*
X163806621Y-101358921D01*
X163636455Y-101613593D01*
X163636455Y-101613594D01*
X163576700Y-101914000D01*
X163576700Y-111550300D01*
X163636455Y-111850707D01*
X163806621Y-112105379D01*
X164900012Y-113198770D01*
X164655043Y-113565391D01*
X164548703Y-114100000D01*
X164655043Y-114634609D01*
X164957875Y-115087828D01*
X165380174Y-115370000D01*
X164957875Y-115652172D01*
X164655043Y-116105391D01*
X164548703Y-116640000D01*
X164655043Y-117174609D01*
X164957875Y-117627828D01*
X165411094Y-117930660D01*
X165945703Y-118037000D01*
X167554297Y-118037000D01*
X168088906Y-117930660D01*
X168542125Y-117627828D01*
X168677651Y-117425000D01*
X173209300Y-117425000D01*
X173509707Y-117365245D01*
X173764379Y-117195079D01*
X176040000Y-114919457D01*
X176040000Y-136430073D01*
X175967014Y-136796997D01*
X175798780Y-137048777D01*
X175546996Y-137217014D01*
X175180073Y-137290000D01*
X170210000Y-137290000D01*
X170210000Y-134922815D01*
X171114630Y-134922815D01*
X171438980Y-135707800D01*
X172039041Y-136308909D01*
X172823459Y-136634628D01*
X173672815Y-136635370D01*
X174457800Y-136311020D01*
X175058909Y-135710959D01*
X175384628Y-134926541D01*
X175385370Y-134077185D01*
X175061020Y-133292200D01*
X174460959Y-132691091D01*
X173676541Y-132365372D01*
X172827185Y-132364630D01*
X172042200Y-132688980D01*
X171441091Y-133289041D01*
X171115372Y-134073459D01*
X171114630Y-134922815D01*
X170210000Y-134922815D01*
X170210000Y-119500000D01*
X170155954Y-119228295D01*
X170002046Y-118997954D01*
X169771705Y-118844046D01*
X169500000Y-118790000D01*
X151000000Y-118790000D01*
X150728295Y-118844046D01*
X150497954Y-118997954D01*
X150344046Y-119228295D01*
X150290000Y-119500000D01*
X150290000Y-137290000D01*
X108319927Y-137290000D01*
X107953003Y-137217014D01*
X107701223Y-137048780D01*
X107532986Y-136796996D01*
X107460000Y-136430073D01*
X107460000Y-134922815D01*
X108114630Y-134922815D01*
X108438980Y-135707800D01*
X109039041Y-136308909D01*
X109823459Y-136634628D01*
X110672815Y-136635370D01*
X111457800Y-136311020D01*
X112058909Y-135710959D01*
X112384628Y-134926541D01*
X112385370Y-134077185D01*
X112061020Y-133292200D01*
X111460959Y-132691091D01*
X110676541Y-132365372D01*
X109827185Y-132364630D01*
X109042200Y-132688980D01*
X108441091Y-133289041D01*
X108115372Y-134073459D01*
X108114630Y-134922815D01*
X107460000Y-134922815D01*
X107460000Y-129010600D01*
X127047503Y-129010600D01*
X127153843Y-129545209D01*
X127456675Y-129998428D01*
X127909894Y-130301260D01*
X128444503Y-130407600D01*
X130053097Y-130407600D01*
X130587706Y-130301260D01*
X131040925Y-129998428D01*
X131343757Y-129545209D01*
X131450097Y-129010600D01*
X131343757Y-128475991D01*
X131040925Y-128022772D01*
X130587706Y-127719940D01*
X130053097Y-127613600D01*
X128444503Y-127613600D01*
X127909894Y-127719940D01*
X127456675Y-128022772D01*
X127153843Y-128475991D01*
X127047503Y-129010600D01*
X107460000Y-129010600D01*
X107460000Y-126710000D01*
X115750000Y-126710000D01*
X116021705Y-126655954D01*
X116252046Y-126502046D01*
X116405954Y-126271705D01*
X116460000Y-126000000D01*
X116460000Y-117216858D01*
X116707875Y-117587828D01*
X117161094Y-117890660D01*
X117695703Y-117997000D01*
X119304297Y-117997000D01*
X119838906Y-117890660D01*
X120292125Y-117587828D01*
X120442500Y-117362776D01*
X120442500Y-120833764D01*
X119979697Y-121024990D01*
X119626237Y-121377833D01*
X119595162Y-121212683D01*
X119456090Y-120996559D01*
X119243890Y-120851569D01*
X118992000Y-120800560D01*
X117468000Y-120800560D01*
X117232683Y-120844838D01*
X117016559Y-120983910D01*
X116871569Y-121196110D01*
X116820560Y-121448000D01*
X116820560Y-122972000D01*
X116864838Y-123207317D01*
X117003910Y-123423441D01*
X117216110Y-123568431D01*
X117399124Y-123605492D01*
X117046371Y-123957630D01*
X116833243Y-124470900D01*
X116832758Y-125026661D01*
X117044990Y-125540303D01*
X117437630Y-125933629D01*
X117645512Y-126019949D01*
X117439697Y-126104990D01*
X117046371Y-126497630D01*
X116833243Y-127010900D01*
X116832758Y-127566661D01*
X117044990Y-128080303D01*
X117437630Y-128473629D01*
X117950900Y-128686757D01*
X118506661Y-128687242D01*
X119020303Y-128475010D01*
X119225457Y-128270213D01*
X119969392Y-128270213D01*
X120038857Y-128512397D01*
X120562302Y-128699144D01*
X121117368Y-128671362D01*
X121501143Y-128512397D01*
X121570608Y-128270213D01*
X120770000Y-127469605D01*
X119969392Y-128270213D01*
X119225457Y-128270213D01*
X119413629Y-128082370D01*
X119493395Y-127890273D01*
X119547603Y-128021143D01*
X119789787Y-128090608D01*
X120590395Y-127290000D01*
X120949605Y-127290000D01*
X121750213Y-128090608D01*
X121992397Y-128021143D01*
X122179144Y-127497698D01*
X122151362Y-126942632D01*
X121992397Y-126558857D01*
X121750213Y-126489392D01*
X120949605Y-127290000D01*
X120590395Y-127290000D01*
X119789787Y-126489392D01*
X119547603Y-126558857D01*
X119497491Y-126699318D01*
X119415010Y-126499697D01*
X119022370Y-126106371D01*
X118814488Y-126020051D01*
X119020303Y-125935010D01*
X119413629Y-125542370D01*
X119499949Y-125334488D01*
X119584990Y-125540303D01*
X119977630Y-125933629D01*
X120169727Y-126013395D01*
X120038857Y-126067603D01*
X119969392Y-126309787D01*
X120770000Y-127110395D01*
X121570608Y-126309787D01*
X121501143Y-126067603D01*
X121360682Y-126017491D01*
X121560303Y-125935010D01*
X121953629Y-125542370D01*
X122166757Y-125029100D01*
X122166928Y-124832470D01*
X127132580Y-124832470D01*
X127147540Y-124906677D01*
X127409170Y-125387426D01*
X127834859Y-125731459D01*
X128359800Y-125886400D01*
X129121800Y-125886400D01*
X129121800Y-124616400D01*
X129375800Y-124616400D01*
X129375800Y-125886400D01*
X130137800Y-125886400D01*
X130662741Y-125731459D01*
X131088430Y-125387426D01*
X131350060Y-124906677D01*
X131365020Y-124832470D01*
X131242520Y-124616400D01*
X129375800Y-124616400D01*
X129121800Y-124616400D01*
X127255080Y-124616400D01*
X127132580Y-124832470D01*
X122166928Y-124832470D01*
X122167242Y-124473339D01*
X122032125Y-124146330D01*
X127132580Y-124146330D01*
X127255080Y-124362400D01*
X129121800Y-124362400D01*
X129121800Y-123092400D01*
X129375800Y-123092400D01*
X129375800Y-124362400D01*
X131242520Y-124362400D01*
X131365020Y-124146330D01*
X131350060Y-124072123D01*
X131088430Y-123591374D01*
X130662741Y-123247341D01*
X130137800Y-123092400D01*
X129375800Y-123092400D01*
X129121800Y-123092400D01*
X128359800Y-123092400D01*
X127834859Y-123247341D01*
X127409170Y-123591374D01*
X127147540Y-124072123D01*
X127132580Y-124146330D01*
X122032125Y-124146330D01*
X121955010Y-123959697D01*
X121562370Y-123566371D01*
X121354488Y-123480051D01*
X121560303Y-123395010D01*
X121953629Y-123002370D01*
X122146660Y-122537500D01*
X132788100Y-122537500D01*
X132788100Y-129409495D01*
X132788099Y-129409500D01*
X132844290Y-129691984D01*
X132855467Y-129748175D01*
X132968993Y-129918079D01*
X133047310Y-130035290D01*
X133908508Y-130896487D01*
X133908510Y-130896490D01*
X134195625Y-131088333D01*
X134251816Y-131099510D01*
X134534300Y-131155701D01*
X134534305Y-131155700D01*
X141549395Y-131155700D01*
X141549400Y-131155701D01*
X141831884Y-131099510D01*
X141888075Y-131088333D01*
X142175190Y-130896490D01*
X146915787Y-126155892D01*
X146915790Y-126155890D01*
X147107633Y-125868775D01*
X147134947Y-125731459D01*
X147175001Y-125530100D01*
X147175000Y-125530095D01*
X147175000Y-120360478D01*
X147473629Y-120062370D01*
X147686757Y-119549100D01*
X147687242Y-118993339D01*
X147475010Y-118479697D01*
X147122167Y-118126237D01*
X147287317Y-118095162D01*
X147503441Y-117956090D01*
X147648431Y-117743890D01*
X147699440Y-117492000D01*
X147699440Y-115968000D01*
X147655162Y-115732683D01*
X147516090Y-115516559D01*
X147303890Y-115371569D01*
X147052000Y-115320560D01*
X145528000Y-115320560D01*
X145292683Y-115364838D01*
X145076559Y-115503910D01*
X144931569Y-115716110D01*
X144894508Y-115899124D01*
X144542370Y-115546371D01*
X144029100Y-115333243D01*
X143473339Y-115332758D01*
X142959697Y-115544990D01*
X142566371Y-115937630D01*
X142480051Y-116145512D01*
X142395010Y-115939697D01*
X142002370Y-115546371D01*
X141995000Y-115543311D01*
X141995000Y-107025705D01*
X141995001Y-107025700D01*
X141935245Y-106725294D01*
X141765079Y-106470621D01*
X141765076Y-106470619D01*
X120929379Y-85634921D01*
X120674707Y-85464755D01*
X120435828Y-85417239D01*
X120292125Y-85202172D01*
X119869826Y-84920000D01*
X120292125Y-84637828D01*
X120594957Y-84184609D01*
X120701297Y-83650000D01*
X120594957Y-83115391D01*
X120292125Y-82662172D01*
X119869826Y-82380000D01*
X120292125Y-82097828D01*
X120594957Y-81644609D01*
X120701297Y-81110000D01*
X120594957Y-80575391D01*
X120292125Y-80122172D01*
X119838906Y-79819340D01*
X119304297Y-79713000D01*
X117695703Y-79713000D01*
X117161094Y-79819340D01*
X116707875Y-80122172D01*
X116405043Y-80575391D01*
X116298703Y-81110000D01*
X116405043Y-81644609D01*
X116707875Y-82097828D01*
X117130174Y-82380000D01*
X116707875Y-82662172D01*
X116405043Y-83115391D01*
X116349626Y-83393993D01*
X116252046Y-83247954D01*
X116021705Y-83094046D01*
X115750000Y-83040000D01*
X107460000Y-83040000D01*
X107460000Y-53922815D01*
X108114630Y-53922815D01*
X108438980Y-54707800D01*
X109039041Y-55308909D01*
X109823459Y-55634628D01*
X110672815Y-55635370D01*
X111457800Y-55311020D01*
X112058909Y-54710959D01*
X112384628Y-53926541D01*
X112385370Y-53077185D01*
X112061020Y-52292200D01*
X111460959Y-51691091D01*
X110676541Y-51365372D01*
X109827185Y-51364630D01*
X109042200Y-51688980D01*
X108441091Y-52289041D01*
X108115372Y-53073459D01*
X108114630Y-53922815D01*
X107460000Y-53922815D01*
X107460000Y-51569927D01*
X107532986Y-51203004D01*
X107701223Y-50951220D01*
X107953003Y-50782986D01*
X108319927Y-50710000D01*
X153040000Y-50710000D01*
X153040000Y-67500000D01*
G36*
X140755600Y-122377179D02*
X140755600Y-124562810D01*
X140099250Y-124562810D01*
X139863933Y-124607088D01*
X139761516Y-124672991D01*
X139760448Y-124671923D01*
X139527059Y-124575250D01*
X139161990Y-124575250D01*
X139003240Y-124734000D01*
X139003240Y-125623000D01*
X139023240Y-125623000D01*
X139023240Y-125877000D01*
X139003240Y-125877000D01*
X139003240Y-125897000D01*
X138749240Y-125897000D01*
X138749240Y-125877000D01*
X137875480Y-125877000D01*
X137716730Y-126035750D01*
X137716730Y-126416060D01*
X137813403Y-126649449D01*
X137906267Y-126742313D01*
X137900289Y-126746160D01*
X137755299Y-126958360D01*
X137704290Y-127210250D01*
X137704290Y-128241272D01*
X137687028Y-128237839D01*
X137543325Y-128022772D01*
X137090106Y-127719940D01*
X136555497Y-127613600D01*
X134946903Y-127613600D01*
X134558100Y-127690937D01*
X134558100Y-125796642D01*
X134862200Y-125886400D01*
X135624200Y-125886400D01*
X135624200Y-124616400D01*
X135878200Y-124616400D01*
X135878200Y-125886400D01*
X136640200Y-125886400D01*
X137165141Y-125731459D01*
X137590830Y-125387426D01*
X137716730Y-125156083D01*
X137716730Y-125464250D01*
X137875480Y-125623000D01*
X138749240Y-125623000D01*
X138749240Y-124734000D01*
X138590490Y-124575250D01*
X138225421Y-124575250D01*
X137992032Y-124671923D01*
X137854418Y-124809536D01*
X137744920Y-124616400D01*
X135878200Y-124616400D01*
X135624200Y-124616400D01*
X135604200Y-124616400D01*
X135604200Y-124362400D01*
X135624200Y-124362400D01*
X135624200Y-123092400D01*
X135878200Y-123092400D01*
X135878200Y-124362400D01*
X137744920Y-124362400D01*
X137867420Y-124146330D01*
X137852460Y-124072123D01*
X137590830Y-123591374D01*
X137165141Y-123247341D01*
X136640200Y-123092400D01*
X135878200Y-123092400D01*
X135624200Y-123092400D01*
X134862200Y-123092400D01*
X134558100Y-123182158D01*
X134558100Y-121849650D01*
X135172930Y-121849650D01*
X135408247Y-121805372D01*
X135475826Y-121761886D01*
X135612080Y-121973631D01*
X135824280Y-122118621D01*
X136076170Y-122169630D01*
X137673830Y-122169630D01*
X137909147Y-122125352D01*
X138125271Y-121986280D01*
X138270261Y-121774080D01*
X138321270Y-121522190D01*
X138321270Y-120224250D01*
X138276992Y-119988933D01*
X138211089Y-119886516D01*
X138212157Y-119885448D01*
X138227303Y-119848883D01*
X140755600Y-122377179D01*
X140755600Y-122377179D01*
G37*
X140755600Y-122377179D02*
X140755600Y-124562810D01*
X140099250Y-124562810D01*
X139863933Y-124607088D01*
X139761516Y-124672991D01*
X139760448Y-124671923D01*
X139527059Y-124575250D01*
X139161990Y-124575250D01*
X139003240Y-124734000D01*
X139003240Y-125623000D01*
X139023240Y-125623000D01*
X139023240Y-125877000D01*
X139003240Y-125877000D01*
X139003240Y-125897000D01*
X138749240Y-125897000D01*
X138749240Y-125877000D01*
X137875480Y-125877000D01*
X137716730Y-126035750D01*
X137716730Y-126416060D01*
X137813403Y-126649449D01*
X137906267Y-126742313D01*
X137900289Y-126746160D01*
X137755299Y-126958360D01*
X137704290Y-127210250D01*
X137704290Y-128241272D01*
X137687028Y-128237839D01*
X137543325Y-128022772D01*
X137090106Y-127719940D01*
X136555497Y-127613600D01*
X134946903Y-127613600D01*
X134558100Y-127690937D01*
X134558100Y-125796642D01*
X134862200Y-125886400D01*
X135624200Y-125886400D01*
X135624200Y-124616400D01*
X135878200Y-124616400D01*
X135878200Y-125886400D01*
X136640200Y-125886400D01*
X137165141Y-125731459D01*
X137590830Y-125387426D01*
X137716730Y-125156083D01*
X137716730Y-125464250D01*
X137875480Y-125623000D01*
X138749240Y-125623000D01*
X138749240Y-124734000D01*
X138590490Y-124575250D01*
X138225421Y-124575250D01*
X137992032Y-124671923D01*
X137854418Y-124809536D01*
X137744920Y-124616400D01*
X135878200Y-124616400D01*
X135624200Y-124616400D01*
X135604200Y-124616400D01*
X135604200Y-124362400D01*
X135624200Y-124362400D01*
X135624200Y-123092400D01*
X135878200Y-123092400D01*
X135878200Y-124362400D01*
X137744920Y-124362400D01*
X137867420Y-124146330D01*
X137852460Y-124072123D01*
X137590830Y-123591374D01*
X137165141Y-123247341D01*
X136640200Y-123092400D01*
X135878200Y-123092400D01*
X135624200Y-123092400D01*
X134862200Y-123092400D01*
X134558100Y-123182158D01*
X134558100Y-121849650D01*
X135172930Y-121849650D01*
X135408247Y-121805372D01*
X135475826Y-121761886D01*
X135612080Y-121973631D01*
X135824280Y-122118621D01*
X136076170Y-122169630D01*
X137673830Y-122169630D01*
X137909147Y-122125352D01*
X138125271Y-121986280D01*
X138270261Y-121774080D01*
X138321270Y-121522190D01*
X138321270Y-120224250D01*
X138276992Y-119988933D01*
X138211089Y-119886516D01*
X138212157Y-119885448D01*
X138227303Y-119848883D01*
X140755600Y-122377179D01*
G36*
X145104990Y-120060303D02*
X145405000Y-120360837D01*
X145405000Y-125163521D01*
X143153400Y-127415120D01*
X143153400Y-120534920D01*
X143470900Y-120666757D01*
X144026661Y-120667242D01*
X144540303Y-120455010D01*
X144933629Y-120062370D01*
X145019949Y-119854488D01*
X145104990Y-120060303D01*
X145104990Y-120060303D01*
G37*
X145104990Y-120060303D02*
X145405000Y-120360837D01*
X145405000Y-125163521D01*
X143153400Y-127415120D01*
X143153400Y-120534920D01*
X143470900Y-120666757D01*
X144026661Y-120667242D01*
X144540303Y-120455010D01*
X144933629Y-120062370D01*
X145019949Y-119854488D01*
X145104990Y-120060303D01*
G36*
X132788100Y-104269679D02*
X132788100Y-114400350D01*
X132173190Y-114400350D01*
X131937873Y-114444628D01*
X131721749Y-114583700D01*
X131576759Y-114795900D01*
X131525750Y-115047790D01*
X131525750Y-116645450D01*
X131570028Y-116880767D01*
X131709100Y-117096891D01*
X131921300Y-117241881D01*
X132173190Y-117292890D01*
X135172930Y-117292890D01*
X135408247Y-117248612D01*
X135441170Y-117227427D01*
X135441170Y-117648499D01*
X135534990Y-117875000D01*
X135441170Y-118101501D01*
X135441170Y-118591030D01*
X135599920Y-118749780D01*
X136748000Y-118749780D01*
X136748000Y-117000220D01*
X136728000Y-117000220D01*
X136728000Y-116746220D01*
X136748000Y-116746220D01*
X136748000Y-116726220D01*
X137002000Y-116726220D01*
X137002000Y-116746220D01*
X137022000Y-116746220D01*
X137022000Y-117000220D01*
X137002000Y-117000220D01*
X137002000Y-118749780D01*
X137022000Y-118749780D01*
X137022000Y-119003780D01*
X137002000Y-119003780D01*
X137002000Y-119023780D01*
X136748000Y-119023780D01*
X136748000Y-119003780D01*
X135599920Y-119003780D01*
X135526266Y-119077434D01*
X135424820Y-119008119D01*
X135172930Y-118957110D01*
X132173190Y-118957110D01*
X131937873Y-119001388D01*
X131721749Y-119140460D01*
X131576759Y-119352660D01*
X131525750Y-119604550D01*
X131525750Y-120767500D01*
X130228820Y-120767500D01*
X130228820Y-118410750D01*
X130070070Y-118252000D01*
X126622020Y-118252000D01*
X126622020Y-118272000D01*
X126368020Y-118272000D01*
X126368020Y-118252000D01*
X122919970Y-118252000D01*
X122761220Y-118410750D01*
X122761220Y-120767500D01*
X122212500Y-120767500D01*
X122212500Y-115099281D01*
X122761220Y-115099281D01*
X122761220Y-117839250D01*
X122919970Y-117998000D01*
X126368020Y-117998000D01*
X126368020Y-114749340D01*
X126622020Y-114749340D01*
X126622020Y-117998000D01*
X130070070Y-117998000D01*
X130228820Y-117839250D01*
X130228820Y-115099281D01*
X130132147Y-114865892D01*
X129953519Y-114687263D01*
X129720130Y-114590590D01*
X126780770Y-114590590D01*
X126622020Y-114749340D01*
X126368020Y-114749340D01*
X126209270Y-114590590D01*
X123269910Y-114590590D01*
X123036521Y-114687263D01*
X122857893Y-114865892D01*
X122761220Y-115099281D01*
X122212500Y-115099281D01*
X122212500Y-94097505D01*
X122212501Y-94097500D01*
X122145133Y-93758826D01*
X122145133Y-93758825D01*
X121953290Y-93471710D01*
X121953287Y-93471708D01*
X120471282Y-91989702D01*
X120486038Y-91967618D01*
X132788100Y-104269679D01*
X132788100Y-104269679D01*
G37*
X132788100Y-104269679D02*
X132788100Y-114400350D01*
X132173190Y-114400350D01*
X131937873Y-114444628D01*
X131721749Y-114583700D01*
X131576759Y-114795900D01*
X131525750Y-115047790D01*
X131525750Y-116645450D01*
X131570028Y-116880767D01*
X131709100Y-117096891D01*
X131921300Y-117241881D01*
X132173190Y-117292890D01*
X135172930Y-117292890D01*
X135408247Y-117248612D01*
X135441170Y-117227427D01*
X135441170Y-117648499D01*
X135534990Y-117875000D01*
X135441170Y-118101501D01*
X135441170Y-118591030D01*
X135599920Y-118749780D01*
X136748000Y-118749780D01*
X136748000Y-117000220D01*
X136728000Y-117000220D01*
X136728000Y-116746220D01*
X136748000Y-116746220D01*
X136748000Y-116726220D01*
X137002000Y-116726220D01*
X137002000Y-116746220D01*
X137022000Y-116746220D01*
X137022000Y-117000220D01*
X137002000Y-117000220D01*
X137002000Y-118749780D01*
X137022000Y-118749780D01*
X137022000Y-119003780D01*
X137002000Y-119003780D01*
X137002000Y-119023780D01*
X136748000Y-119023780D01*
X136748000Y-119003780D01*
X135599920Y-119003780D01*
X135526266Y-119077434D01*
X135424820Y-119008119D01*
X135172930Y-118957110D01*
X132173190Y-118957110D01*
X131937873Y-119001388D01*
X131721749Y-119140460D01*
X131576759Y-119352660D01*
X131525750Y-119604550D01*
X131525750Y-120767500D01*
X130228820Y-120767500D01*
X130228820Y-118410750D01*
X130070070Y-118252000D01*
X126622020Y-118252000D01*
X126622020Y-118272000D01*
X126368020Y-118272000D01*
X126368020Y-118252000D01*
X122919970Y-118252000D01*
X122761220Y-118410750D01*
X122761220Y-120767500D01*
X122212500Y-120767500D01*
X122212500Y-115099281D01*
X122761220Y-115099281D01*
X122761220Y-117839250D01*
X122919970Y-117998000D01*
X126368020Y-117998000D01*
X126368020Y-114749340D01*
X126622020Y-114749340D01*
X126622020Y-117998000D01*
X130070070Y-117998000D01*
X130228820Y-117839250D01*
X130228820Y-115099281D01*
X130132147Y-114865892D01*
X129953519Y-114687263D01*
X129720130Y-114590590D01*
X126780770Y-114590590D01*
X126622020Y-114749340D01*
X126368020Y-114749340D01*
X126209270Y-114590590D01*
X123269910Y-114590590D01*
X123036521Y-114687263D01*
X122857893Y-114865892D01*
X122761220Y-115099281D01*
X122212500Y-115099281D01*
X122212500Y-94097505D01*
X122212501Y-94097500D01*
X122145133Y-93758826D01*
X122145133Y-93758825D01*
X121953290Y-93471710D01*
X121953287Y-93471708D01*
X120471282Y-91989702D01*
X120486038Y-91967618D01*
X132788100Y-104269679D01*
G36*
X140425000Y-107350857D02*
X140425000Y-115542799D01*
X140419697Y-115544990D01*
X140026371Y-115937630D01*
X139813243Y-116450900D01*
X139812758Y-117006661D01*
X140024990Y-117520303D01*
X140417630Y-117913629D01*
X140609727Y-117993395D01*
X140478857Y-118047603D01*
X140409392Y-118289787D01*
X141210000Y-119090395D01*
X141224143Y-119076253D01*
X141403748Y-119255858D01*
X141389605Y-119270000D01*
X141403748Y-119284143D01*
X141224143Y-119463748D01*
X141210000Y-119449605D01*
X141195858Y-119463748D01*
X141016253Y-119284143D01*
X141030395Y-119270000D01*
X140229787Y-118469392D01*
X139987603Y-118538857D01*
X139838465Y-118956885D01*
X139009100Y-118127520D01*
X139009100Y-114876800D01*
X138941733Y-114538125D01*
X138749890Y-114251010D01*
X138462775Y-114059167D01*
X138282802Y-114023368D01*
X138276992Y-113992493D01*
X138137920Y-113776369D01*
X137925720Y-113631379D01*
X137673830Y-113580370D01*
X136076170Y-113580370D01*
X135840853Y-113624648D01*
X135624729Y-113763720D01*
X135479739Y-113975920D01*
X135476523Y-113991800D01*
X134558100Y-113991800D01*
X134558100Y-103903105D01*
X134558101Y-103903100D01*
X134490733Y-103564426D01*
X134490733Y-103564425D01*
X134298890Y-103277310D01*
X134298887Y-103277308D01*
X120471282Y-89449702D01*
X120594957Y-89264609D01*
X120701297Y-88730000D01*
X120594957Y-88195391D01*
X120292125Y-87742172D01*
X119869826Y-87460000D01*
X120268054Y-87193912D01*
X140425000Y-107350857D01*
X140425000Y-107350857D01*
G37*
X140425000Y-107350857D02*
X140425000Y-115542799D01*
X140419697Y-115544990D01*
X140026371Y-115937630D01*
X139813243Y-116450900D01*
X139812758Y-117006661D01*
X140024990Y-117520303D01*
X140417630Y-117913629D01*
X140609727Y-117993395D01*
X140478857Y-118047603D01*
X140409392Y-118289787D01*
X141210000Y-119090395D01*
X141224143Y-119076253D01*
X141403748Y-119255858D01*
X141389605Y-119270000D01*
X141403748Y-119284143D01*
X141224143Y-119463748D01*
X141210000Y-119449605D01*
X141195858Y-119463748D01*
X141016253Y-119284143D01*
X141030395Y-119270000D01*
X140229787Y-118469392D01*
X139987603Y-118538857D01*
X139838465Y-118956885D01*
X139009100Y-118127520D01*
X139009100Y-114876800D01*
X138941733Y-114538125D01*
X138749890Y-114251010D01*
X138462775Y-114059167D01*
X138282802Y-114023368D01*
X138276992Y-113992493D01*
X138137920Y-113776369D01*
X137925720Y-113631379D01*
X137673830Y-113580370D01*
X136076170Y-113580370D01*
X135840853Y-113624648D01*
X135624729Y-113763720D01*
X135479739Y-113975920D01*
X135476523Y-113991800D01*
X134558100Y-113991800D01*
X134558100Y-103903105D01*
X134558101Y-103903100D01*
X134490733Y-103564426D01*
X134490733Y-103564425D01*
X134298890Y-103277310D01*
X134298887Y-103277308D01*
X120471282Y-89449702D01*
X120594957Y-89264609D01*
X120701297Y-88730000D01*
X120594957Y-88195391D01*
X120292125Y-87742172D01*
X119869826Y-87460000D01*
X120268054Y-87193912D01*
X140425000Y-107350857D01*
G36*
X171423748Y-111915858D02*
X171409605Y-111930000D01*
X171423748Y-111944143D01*
X171244143Y-112123748D01*
X171230000Y-112109605D01*
X170429392Y-112910213D01*
X170498857Y-113152397D01*
X170622344Y-113196453D01*
X170498857Y-113247603D01*
X170429392Y-113489787D01*
X171230000Y-114290395D01*
X171244143Y-114276253D01*
X171423748Y-114455858D01*
X171409605Y-114470000D01*
X171423748Y-114484143D01*
X171244143Y-114663748D01*
X171230000Y-114649605D01*
X171215858Y-114663748D01*
X171036253Y-114484143D01*
X171050395Y-114470000D01*
X170249787Y-113669392D01*
X170007603Y-113738857D01*
X169840815Y-114206357D01*
X169179379Y-113544921D01*
X168924707Y-113374755D01*
X168685933Y-113327260D01*
X168762979Y-113275779D01*
X169844479Y-112194279D01*
X169848638Y-112277368D01*
X170007603Y-112661143D01*
X170249787Y-112730608D01*
X171050395Y-111930000D01*
X171036253Y-111915858D01*
X171215858Y-111736253D01*
X171230000Y-111750395D01*
X171244143Y-111736253D01*
X171423748Y-111915858D01*
X171423748Y-111915858D01*
G37*
X171423748Y-111915858D02*
X171409605Y-111930000D01*
X171423748Y-111944143D01*
X171244143Y-112123748D01*
X171230000Y-112109605D01*
X170429392Y-112910213D01*
X170498857Y-113152397D01*
X170622344Y-113196453D01*
X170498857Y-113247603D01*
X170429392Y-113489787D01*
X171230000Y-114290395D01*
X171244143Y-114276253D01*
X171423748Y-114455858D01*
X171409605Y-114470000D01*
X171423748Y-114484143D01*
X171244143Y-114663748D01*
X171230000Y-114649605D01*
X171215858Y-114663748D01*
X171036253Y-114484143D01*
X171050395Y-114470000D01*
X170249787Y-113669392D01*
X170007603Y-113738857D01*
X169840815Y-114206357D01*
X169179379Y-113544921D01*
X168924707Y-113374755D01*
X168685933Y-113327260D01*
X168762979Y-113275779D01*
X169844479Y-112194279D01*
X169848638Y-112277368D01*
X170007603Y-112661143D01*
X170249787Y-112730608D01*
X171050395Y-111930000D01*
X171036253Y-111915858D01*
X171215858Y-111736253D01*
X171230000Y-111750395D01*
X171244143Y-111736253D01*
X171423748Y-111915858D01*
G36*
X120442500Y-98127224D02*
X120292125Y-97902172D01*
X119854338Y-97609651D01*
X119913941Y-97592059D01*
X120339630Y-97248026D01*
X120442500Y-97059001D01*
X120442500Y-98127224D01*
X120442500Y-98127224D01*
G37*
X120442500Y-98127224D02*
X120292125Y-97902172D01*
X119854338Y-97609651D01*
X119913941Y-97592059D01*
X120339630Y-97248026D01*
X120442500Y-97059001D01*
X120442500Y-98127224D01*
G36*
X118627000Y-93683000D02*
X118647000Y-93683000D01*
X118647000Y-93937000D01*
X118627000Y-93937000D01*
X118627000Y-96223000D01*
X118647000Y-96223000D01*
X118647000Y-96477000D01*
X118627000Y-96477000D01*
X118627000Y-96497000D01*
X118373000Y-96497000D01*
X118373000Y-96477000D01*
X118353000Y-96477000D01*
X118353000Y-96223000D01*
X118373000Y-96223000D01*
X118373000Y-93937000D01*
X118353000Y-93937000D01*
X118353000Y-93683000D01*
X118373000Y-93683000D01*
X118373000Y-93663000D01*
X118627000Y-93663000D01*
X118627000Y-93683000D01*
X118627000Y-93683000D01*
G37*
X118627000Y-93683000D02*
X118647000Y-93683000D01*
X118647000Y-93937000D01*
X118627000Y-93937000D01*
X118627000Y-96223000D01*
X118647000Y-96223000D01*
X118647000Y-96477000D01*
X118627000Y-96477000D01*
X118627000Y-96497000D01*
X118373000Y-96497000D01*
X118373000Y-96477000D01*
X118353000Y-96477000D01*
X118353000Y-96223000D01*
X118373000Y-96223000D01*
X118373000Y-93937000D01*
X118353000Y-93937000D01*
X118353000Y-93683000D01*
X118373000Y-93683000D01*
X118373000Y-93663000D01*
X118627000Y-93663000D01*
X118627000Y-93683000D01*
M02*
